<?xml version="1.0" standalone="no"?>
<!DOCTYPE svg PUBLIC "-//W3C//DTD SVG 20010904//EN"
 "http://www.w3.org/TR/2001/REC-SVG-20010904/DTD/svg10.dtd">
<svg version="1.0" xmlns="http://www.w3.org/2000/svg"
 width="521.000000pt" height="521.000000pt" viewBox="0 0 521.000000 521.000000"
 preserveAspectRatio="xMidYMid meet">
<metadata>
Created by potrace 1.11, written by Peter Selinger 2001-2013
</metadata>
<g transform="translate(0.000000,521.000000) scale(0.100000,-0.100000)"
fill="#000000" stroke="none">
<path d="M1316 4796 c-113 -38 -196 -100 -291 -216 -28 -35 -80 -136 -99 -192
-67 -201 -51 -428 41 -601 16 -29 30 -54 33 -57 3 -3 18 -22 34 -43 65 -88
177 -171 279 -209 32 -11 60 -25 64 -30 8 -14 11 -127 4 -179 l-6 -44 -190 -1
c-297 -3 -310 -4 -353 -32 -20 -14 -39 -28 -42 -31 -3 -3 -50 -42 -105 -86
-177 -142 -345 -283 -362 -305 -22 -27 -14 -61 27 -121 22 -32 40 -63 40 -67
0 -5 -22 -23 -49 -40 -27 -16 -57 -42 -66 -56 -24 -36 -12 -80 27 -99 35 -17
37 -16 138 33 l65 32 20 -28 c32 -44 108 -114 131 -120 11 -3 54 6 95 21 41
14 95 32 121 40 l47 14 0 -367 c0 -202 0 -372 1 -378 1 -29 68 -44 208 -48 77
-2 145 -7 151 -11 11 -6 10 -51 -4 -155 -3 -19 -9 -71 -15 -115 -12 -93 -16
-124 -24 -182 -14 -100 -22 -162 -31 -228 -3 -27 -8 -61 -10 -75 -3 -14 -7
-45 -9 -70 -3 -25 -8 -67 -11 -94 -8 -67 1 -99 33 -118 23 -14 32 -14 59 -3
36 15 48 35 57 90 3 22 8 51 11 65 5 25 11 67 21 136 3 22 8 53 10 69 3 17 7
41 8 55 6 45 18 135 22 155 2 10 6 37 9 60 3 22 8 51 10 65 2 14 7 44 10 68 8
66 15 116 19 137 2 11 7 44 11 73 4 29 12 55 19 57 6 2 44 6 84 8 l72 3 0
-320 c1 -691 1 -698 82 -693 36 2 45 8 56 30 16 32 21 176 26 647 2 179 4 328
5 332 1 4 11 4 24 0 36 -12 133 -8 161 7 16 9 28 26 31 45 7 36 -1 205 -19
431 -3 39 -8 104 -12 145 -3 41 -7 106 -9 143 -4 81 -13 81 127 -4 195 -118
195 -118 235 -75 29 31 103 150 103 165 0 5 6 13 13 19 9 8 26 2 62 -22 77
-52 124 -74 143 -69 45 12 68 54 55 102 -3 11 -45 49 -93 84 l-87 62 24 38
c61 97 133 249 133 282 0 31 -21 56 -50 60 -3 0 -14 6 -25 12 -26 14 -231 100
-393 164 l-126 50 -275 2 -276 2 0 113 c-1 108 3 123 30 128 6 1 23 5 38 8 47
8 189 82 238 123 78 64 151 168 188 263 10 25 21 54 26 65 26 65 27 328 2 430
-8 30 -41 119 -47 125 -3 3 -16 27 -30 54 -38 75 -162 196 -240 235 -95 46
-158 60 -271 59 -73 -1 -117 -7 -163 -22z m340 -166 c120 -58 214 -173 260
-318 22 -68 26 -234 9 -311 -17 -69 -57 -165 -80 -188 -8 -8 -15 -18 -15 -22
0 -13 -83 -90 -129 -121 -93 -63 -233 -83 -331 -47 -100 36 -208 128 -247 209
-10 21 -21 38 -25 38 -5 0 -8 8 -8 18 0 10 -4 22 -8 28 -12 13 -32 87 -39 142
-29 225 68 444 245 556 66 41 121 54 213 52 76 -2 96 -7 155 -36z m-189 -1575
c617 -8 607 -7 683 -39 36 -16 85 -36 110 -46 86 -35 175 -71 202 -83 31 -13
30 -25 -7 -92 -12 -22 -59 -109 -104 -193 -95 -175 -87 -170 -184 -108 -29 18
-72 46 -97 62 -25 15 -47 29 -50 29 -3 0 -23 12 -45 26 -85 53 -119 60 -153
31 -28 -25 -29 -85 -7 -342 2 -19 7 -80 10 -135 4 -55 8 -120 10 -145 2 -25 6
-97 10 -161 6 -116 6 -116 -17 -121 -27 -5 -477 0 -588 6 -41 2 -94 5 -116 5
l-41 1 0 368 c1 202 -2 383 -6 402 -5 24 -16 41 -35 52 -26 16 -32 15 -142
-23 -63 -22 -136 -46 -162 -54 l-48 -14 -87 110 c-49 60 -89 113 -91 118 -2 7
73 76 162 146 21 17 50 40 65 53 47 40 55 47 111 92 30 25 57 48 60 51 8 10
41 15 87 13 22 -2 234 -5 470 -9z"/>
<path d="M3400 4439 c-233 -23 -407 -96 -550 -230 -129 -121 -209 -320 -171
-422 34 -89 185 -199 332 -241 31 -9 63 -22 71 -29 9 -6 25 -43 37 -82 12 -38
34 -91 49 -117 48 -84 157 -184 247 -228 37 -19 44 -28 40 -54 -2 -12 -6 -55
-9 -96 -6 -76 -18 -99 -55 -101 -9 0 -72 -2 -141 -3 -69 -2 -135 -7 -147 -12
-27 -11 -63 -59 -191 -253 -101 -152 -142 -227 -142 -261 0 -25 36 -53 69 -53
36 0 60 24 141 143 36 52 68 97 73 98 4 2 7 8 7 13 0 11 42 72 53 77 4 2 7 8
7 13 0 5 12 26 28 48 24 35 31 39 62 35 19 -2 73 -6 119 -8 46 -3 86 -7 88 -9
7 -8 -20 -101 -38 -132 -10 -16 -20 -52 -24 -80 -5 -48 -8 -69 -20 -145 -5
-30 -25 -118 -39 -170 -13 -46 -48 -135 -77 -196 -78 -162 -150 -261 -311
-426 -70 -71 -88 -95 -88 -119 0 -54 65 -95 257 -159 63 -21 117 -40 119 -43
3 -2 7 -105 10 -228 5 -246 9 -316 19 -341 8 -21 68 -32 95 -18 12 6 26 23 32
38 5 15 12 135 15 272 2 135 7 247 9 250 3 2 53 5 112 6 59 1 124 4 144 8 l37
6 0 -225 c0 -220 8 -293 34 -312 6 -5 29 -10 49 -12 70 -5 75 17 79 384 1 94
5 180 10 192 4 12 23 26 46 33 21 7 43 16 48 20 6 4 50 29 98 54 175 91 238
145 230 196 -3 22 -35 76 -70 120 -7 8 -62 78 -123 155 -61 77 -118 148 -126
159 -9 10 -49 62 -91 115 -41 53 -86 111 -101 130 -15 19 -57 75 -94 125 -37
50 -71 96 -75 101 -35 45 -37 61 -17 210 1 11 3 25 3 31 1 11 16 11 216 0 44
-3 99 -5 122 -5 41 -1 43 -2 100 -87 32 -47 66 -95 76 -107 10 -12 26 -34 34
-48 17 -28 62 -59 85 -59 18 0 54 38 62 65 3 12 -4 36 -19 60 -13 22 -29 50
-34 62 -13 28 -120 178 -163 227 -33 38 -34 39 -118 43 -47 2 -141 5 -210 6
l-125 2 2 55 c1 30 4 75 6 100 3 25 5 50 6 56 1 6 16 11 35 12 19 1 61 10 93
21 164 55 269 161 343 345 l36 89 187 112 c102 62 215 133 251 159 60 43 65
50 60 74 -22 90 -112 211 -241 324 -129 112 -384 231 -543 252 -137 19 -324
25 -430 15z m286 -388 c50 -13 118 -58 165 -108 33 -35 107 -153 96 -153 -3 0
0 -19 7 -42 15 -52 13 -197 -4 -258 -34 -128 -160 -260 -264 -278 -66 -11
-165 -3 -220 18 -44 16 -149 129 -178 190 -34 72 -40 99 -43 193 -10 291 203
503 441 438z m-101 -1896 c22 -27 48 -59 57 -70 52 -61 317 -402 368 -474 48
-67 58 -87 49 -98 -15 -18 -218 -115 -284 -137 -190 -61 -422 -58 -650 8 -42
13 -75 30 -75 39 0 7 17 30 38 52 116 122 219 281 300 465 27 60 92 265 92
288 0 45 24 28 105 -73z"/>
</g>
</svg>
