<?xml version="1.0" encoding="utf-8"?>
<!-- Generator: Adobe Illustrator 16.0.0, SVG Export Plug-In . SVG Version: 6.00 Build 0)  -->
<!DOCTYPE svg PUBLIC "-//W3C//DTD SVG 1.1//EN" "http://www.w3.org/Graphics/SVG/1.1/DTD/svg11.dtd">
<svg version="1.1" id="Layer_1" xmlns="http://www.w3.org/2000/svg" xmlns:xlink="http://www.w3.org/1999/xlink" x="0px" y="0px"
	 width="50px" viewBox="0 0 405 417" enable-background="new 0 0 405 417" xml:space="preserve">
<g transform="translate(0.000000,417.000000) scale(0.100000,-0.100000)">
	<path fill="#FFFFFF" d="M1000,3841c-247.002-78.999-396.001-375-335-663.999c38.999-186.001,180-349.004,343.999-398.003
		c45-12.998,48.999-23.999,43.003-136.001l-4.004-62.998H846.001c-173.999,0-205-2.002-226.001-17.002
		c-43.999-30.996-405-326.997-417.002-342.998c-20.996-26.001-13.999-55,22.002-102.998c18.999-25,35-47.998,35-51.006
		c0-2.998-20-16.992-45-31.992c-25-14.004-50-35-55-45c-21.001-38.008,10-89.004,53.999-89.004c8.003,0,38.003,12.998,66.001,30
		c50,29.004,80,37.998,80,22.002c0-20,92.998-112.002,112.998-112.002c12.002,0,63.003,15,112.002,34.004
		c50,18.994,91.001,32.998,92.998,30.996c2.002-0.996,3.003-137.998,2.002-302.998l-1.001-301.006l23.003-15
		c16.997-12.998,50-15.996,145.996-15.996c99.004,0,124.004-2.998,128.003-15c2.998-7.998-17.002-175.996-45-374.004
		C902.998,684.004,880,505.996,880,487.002c0-57.998,55-85,98.999-49.004c18.999,15,27.002,52.002,67.002,337.002
		c23.999,175.996,50,355.996,56.997,400l12.002,80l67.998,2.998l67.002,2.998v-390c0-431.992-2.002-420.996,63.999-420.996
		c62.002,0,61.001-5,63.999,422.002l3.003,387.998l66.997-5.996c57.002-5,70-4.004,91.001,12.998
		c28.999,23.994,28.999,27.002,1.001,390.996c-12.002,145-20,267.998-17.998,272.998c1.997,4.004,53.999-25,116.997-65.996
		c62.002-40.996,123.003-75,135-75c33.003,0,48.999,17.002,96.001,102.998l42.002,77.998l25.996-16.992
		c112.002-74.004,119.004-77.002,149.004-62.002c22.002,10,28.994,20.996,30.996,50c2.998,35.996,1.006,38.994-70.996,88.994
		l-75,51.006L2035.996,2195c65,113.999,74.004,147.998,52.002,177.002c-7.002,8.999-115,56.997-238.999,106.997L1622.002,2570
		h-221.001H1180v95v95l27.998,6.001C1393.999,2807.001,1530,2933.999,1596.001,3130c28.999,85,26.997,282.002-3.999,371.001
		c-79.004,228.999-247.002,360-460,357.998C1087.002,3858.999,1032.002,3851,1000,3841z M1252.998,3716
		C1505,3612.001,1580,3240,1393.999,3012.998c-71.997-87.998-195-141.997-292.998-128.999
		C940,2906,807.002,3052.998,777.998,3242.001c-20.996,140,23.003,286.997,119.004,388.999
		C995,3735,1127.998,3767.001,1252.998,3716z M1767.002,2372.002c95-37.002,171.997-70,172.998-74.004c0-3.999-40-80-90-168.999
		c-48.999-89.995-91.001-168.003-92.998-173.003c-2.002-5.996-68.003,31.006-146.001,82.002
		C1461.001,2135,1427.998,2146.001,1395,2110c-17.002-18.999-17.002-32.002,8.999-365.996c15-190,23.999-349.004,21.001-352.002
		c-6.001-6.006-356.001-4.004-485,2.998c-41.001,2.998-87.998,5-102.998,5h-28.003l2.002,317.002
		c1.001,315.996,1.001,317.002-21.001,335c-12.002,10-27.998,17.998-33.999,17.998c-7.002,0-68.003-20-136.001-45
		c-100-35.996-126.001-42.002-132.002-30.996C483.999,2000.996,450,2045,413.999,2090l-66.997,82.998l25,21.001
		C510,2307.002,553.999,2342.998,615,2393.999l70,58.003l455-6.001l455-7.002L1767.002,2372.002z"/>
	<path fill="#FFFFFF" d="M2625.996,3550c-176.992-27.998-293.994-80-395.996-176.001c-105.996-100-164.004-231.001-145.996-330
		c15-75,138.994-168.999,277.998-208.999l57.002-16.001l15.996-56.997c9.004-31.001,25.996-74.004,37.002-96.001
		c30.996-61.001,123.994-153.003,185-183.003l53.994-25.996l-5.996-76.001C2695,2260,2707.002,2270,2560,2270
		c-107.002,0-130.996-2.998-149.004-17.002c-10.996-10-71.992-96.997-135.996-192.998c-124.004-187.998-135-217.002-90-245.996
		c47.998-31.006,65-16.006,185.996,166.992L2485,2152.002l59.004-6.001c31.992-3.003,75.996-6.001,96.992-6.001H2680l-7.002-47.002
		C2670,2065,2660,2040,2650,2032.998c-12.002-8.994-19.004-33.994-24.004-90c-26.992-297.002-156.992-552.998-383.994-755.996
		c-47.002-42.002-55-82.002-24.004-110c27.002-24.004,142.002-74.004,219.004-95L2505,962.998l5-227.002
		c5-210.996,5.996-228.994,24.004-241.992c21.992-15,53.994-18.008,72.998-6.006C2632.998,505,2640,557.002,2640,745.996V940h82.998
		c45,0,99.004,2.998,120,5.996l37.002,7.002V759.004c0-223.008,5-242.002,60.996-247.002c65-5,67.002,3.994,68.008,275.996
		C3010,955,3012.002,990,3024.004,990c23.994,0,227.998,107.002,280.996,147.002c74.004,57.002,72.002,77.002-12.002,182.998
		c-442.998,557.998-513.994,652.998-508.994,679.004c2.998,13.994,7.998,51.992,10.996,84.995l7.002,58.003l150.996-7.002
		c84.004-3.999,152.002-7.998,152.998-7.998c1.006-1.001,35-52.002,77.002-112.998c74.004-107.002,91.006-124.004,122.998-124.004
		c22.002,0,54.004,37.002,54.004,62.998c0,12.002-42.002,82.998-92.998,157.002c-76.006,110-99.004,136.001-122.998,141.001
		c-16.006,3.999-95,6.997-176.006,7.998L2820,2260v28.999c0,15,2.998,55,5.996,88.003l7.002,60.996l49.004,5
		c70,9.004,148.994,48.003,208.994,103.003c58.008,55,93.008,110,124.004,196.997l22.002,60l200.996,121.001
		c159.004,95,201.006,125,202.002,142.002c0,41.001-65,147.998-132.002,215c-117.998,117.998-270,203.999-445.996,251.001
		C2974.004,3555,2725.996,3565,2625.996,3550z M2902.998,3240c65-17.002,147.002-92.002,182.998-167.998
		c22.002-44.004,29.004-76.001,32.002-143.003c6.006-127.998-30-225-112.002-296.997c-62.998-55-93.994-67.002-175.996-66.001
		c-94.004,1.001-134.004,18.999-199.004,90c-65.996,71.997-91.992,142.998-91.992,248.999
		c-1.006,176.001,98.994,316.001,243.994,343.999C2829.004,3257.998,2832.002,3257.998,2902.998,3240z M2869.004,1657.998
		c295-372.998,338.994-432.998,330-445c-6.006-5.996-51.006-32.002-102.002-57.002c-169.004-85-340-111.992-512.998-80.996
		c-97.002,17.002-204.004,50-204.004,62.998c0,2.998,20,27.002,44.004,52.002c76.992,80,141.992,175,198.994,290.996
		C2674.004,1585,2730,1747.002,2730,1792.002c0,10,4.004,17.998,9.004,17.998S2802.998,1740.996,2869.004,1657.998z"/>
</g>
</svg>
