<?xml version="1.0" standalone="no"?>
<!DOCTYPE svg PUBLIC "-//W3C//DTD SVG 20010904//EN"
 "http://www.w3.org/TR/2001/REC-SVG-20010904/DTD/svg10.dtd">
<svg version="1.0" xmlns="http://www.w3.org/2000/svg"
 width="1001.000000pt" height="439.000000pt" viewBox="0 0 1001.000000 439.000000"
 preserveAspectRatio="xMidYMid meet">
<metadata>
Created by potrace 1.15, written by Peter Selinger 2001-2017
</metadata>
<g transform="translate(0.000000,439.000000) scale(0.100000,-0.100000)"
fill="#000000" stroke="none">
<path d="M9535 4032 c-80 -30 -116 -52 -183 -110 -53 -46 -70 -56 -110 -60
-37 -3 -57 1 -96 22 -27 14 -56 26 -65 26 -34 0 -79 -39 -105 -91 -23 -47 -26
-64 -26 -161 0 -153 21 -190 152 -267 29 -17 98 -63 153 -102 253 -177 247
-174 322 -138 73 35 134 126 178 264 40 126 49 187 50 335 0 138 -1 147 -27
195 -41 77 -68 98 -136 102 -38 2 -74 -3 -107 -15z m72 -242 c19 -37 16 -106
-8 -195 -19 -74 -60 -174 -82 -203 -11 -14 -65 14 -217 114 -108 71 -148 109
-152 144 -4 34 27 37 97 11 31 -12 65 -21 76 -21 12 0 58 34 107 79 48 43 96
83 107 89 30 17 58 10 72 -18z"/>
<path d="M6227 3239 c-72 -17 -217 -70 -265 -96 -231 -129 -408 -332 -462
-532 -11 -40 -26 -53 -35 -28 -3 6 -20 100 -39 207 -36 207 -61 291 -101 334
-40 44 -103 29 -135 -32 -14 -29 -14 -198 0 -290 13 -77 49 -190 118 -362 67
-169 70 -181 87 -394 9 -112 28 -247 47 -339 36 -179 37 -181 77 -452 36 -244
45 -295 72 -390 44 -156 91 -235 140 -235 28 0 74 45 88 87 18 54 -9 241 -85
602 -19 90 -36 169 -37 175 -1 6 52 29 118 52 193 67 352 131 463 184 57 28
105 50 108 50 10 0 223 126 259 154 193 148 284 275 321 447 31 144 2 394 -59
516 -71 138 -317 318 -473 343 -71 12 -155 11 -207 -1z m308 -253 c158 -75
238 -228 239 -456 1 -112 0 -117 -33 -183 -67 -131 -207 -255 -419 -370 -205
-111 -642 -269 -661 -238 -5 7 -11 43 -15 79 -3 37 -10 115 -16 174 -18 189
12 360 91 521 93 191 236 344 394 422 134 67 189 83 275 84 66 1 84 -3 145
-33z"/>
<path d="M2270 3104 c-47 -40 -68 -92 -89 -218 -13 -77 -29 -133 -49 -172 -41
-82 -75 -195 -107 -354 -14 -74 -35 -160 -45 -190 -76 -228 -137 -546 -161
-844 -9 -107 -17 -156 -25 -156 -18 0 -201 250 -516 707 -387 562 -552 787
-717 982 -98 115 -163 176 -220 206 -71 36 -161 -5 -161 -75 0 -34 49 -100
190 -260 57 -63 130 -146 164 -184 33 -38 96 -121 140 -185 90 -133 134 -190
301 -391 234 -281 245 -298 573 -856 151 -258 250 -374 318 -374 28 0 38 6 59
38 32 48 70 162 90 266 15 76 44 305 80 621 31 270 74 450 230 955 128 417
126 408 111 444 -29 69 -108 88 -166 40z"/>
<path d="M9265 2560 c-41 -79 -30 -220 40 -545 86 -398 115 -623 115 -905 0
-262 -23 -375 -98 -489 -43 -64 -97 -106 -165 -126 -68 -20 -104 -19 -134 5
-37 29 -112 28 -141 -3 -12 -13 -22 -29 -22 -35 0 -7 -7 -15 -15 -19 -11 -4
-33 14 -69 53 -29 33 -88 86 -130 119 -42 33 -76 65 -76 72 0 6 11 20 25 31
14 11 40 51 57 88 26 54 33 85 36 144 3 66 0 83 -27 141 -53 117 -203 285
-303 341 -72 39 -123 51 -166 37 -56 -18 -133 -80 -175 -140 -103 -147 -112
-175 -122 -363 -8 -147 -1 -176 55 -231 22 -22 40 -44 40 -50 0 -6 -23 -33
-51 -60 -123 -119 -164 -211 -119 -268 16 -20 30 -27 55 -27 42 0 96 42 233
184 l103 106 125 0 c109 0 124 -2 124 -17 0 -9 26 -48 58 -87 33 -39 65 -82
73 -94 23 -38 158 -132 189 -132 16 0 42 12 59 26 l31 26 27 -20 c51 -35 101
-45 202 -39 72 4 113 12 166 33 134 53 200 114 266 249 77 158 93 285 86 674
-4 238 -8 297 -31 424 -14 81 -30 165 -35 185 -5 20 -12 78 -16 127 -10 142
-33 272 -66 370 -33 99 -99 219 -129 235 -34 18 -59 11 -75 -20z m-975 -1352
c57 -32 150 -120 200 -190 29 -39 29 -41 13 -72 -9 -17 -34 -55 -57 -84 l-41
-54 -115 5 c-133 4 -169 18 -195 74 -15 30 -17 53 -12 127 8 114 21 162 57
198 38 37 80 37 150 -4z"/>
<path d="M8130 2235 c-26 -31 -42 -115 -47 -245 -6 -152 4 -200 49 -233 23
-17 31 -18 57 -8 17 8 37 28 48 49 39 80 13 376 -38 430 -23 25 -51 28 -69 7z"/>
<path d="M6913 2060 c-72 -77 -117 -518 -88 -856 29 -325 68 -514 110 -530 23
-9 62 4 85 28 19 21 20 34 20 437 l1 416 37 75 c34 69 42 77 92 103 66 33 171
54 311 63 95 6 108 5 146 -16 51 -26 93 -21 122 16 47 60 30 146 -34 177 -60
29 -162 40 -290 33 -149 -8 -222 -24 -304 -65 -34 -18 -64 -31 -66 -29 -1 2
-16 30 -33 63 -31 61 -65 105 -82 105 -5 0 -17 -9 -27 -20z"/>
<path d="M2985 1921 c-62 -38 -94 -88 -190 -294 -42 -91 -128 -122 -369 -136
-195 -11 -240 -24 -264 -73 -10 -22 -10 -33 1 -61 27 -64 98 -101 296 -156 87
-24 101 -34 83 -59 -43 -62 -96 -158 -108 -198 -7 -26 -15 -77 -16 -114 -3
-60 0 -71 21 -94 34 -37 88 -36 123 2 33 35 38 46 87 175 75 201 81 204 236
149 60 -21 110 -43 112 -48 2 -6 -35 -42 -81 -82 -85 -72 -287 -281 -390 -403
-44 -53 -56 -73 -56 -101 0 -78 98 -106 176 -50 62 45 170 156 291 298 119
140 200 218 232 227 12 3 106 -30 228 -80 240 -97 345 -133 388 -133 48 0 92
33 104 78 20 71 -22 163 -151 340 -38 54 -77 110 -85 126 -15 29 -15 31 13 54
112 93 317 278 325 293 12 23 -10 61 -45 77 -51 23 -158 24 -316 2 -85 -11
-183 -23 -217 -27 l-61 -6 -48 74 c-135 212 -228 277 -319 220z m281 -517 c12
-3 30 -21 40 -40 l18 -34 -49 -50 c-74 -76 -133 -113 -170 -106 -26 5 -245
105 -245 112 0 1 9 23 19 47 l20 45 63 6 c35 3 108 10 163 14 55 5 105 10 110
10 6 1 20 -1 31 -4z m248 -333 c26 -51 46 -95 43 -97 -7 -7 -206 76 -214 89
-8 13 96 109 112 104 5 -2 32 -45 59 -96z"/>
<path d="M4515 1839 c-141 -18 -279 -108 -352 -230 -97 -161 -131 -424 -71
-548 87 -182 376 -287 813 -298 193 -5 201 -4 227 16 36 29 46 82 23 117 -35
54 -124 75 -470 108 -262 26 -370 65 -414 149 -24 47 -24 51 -13 145 30 249
130 372 301 372 140 0 197 -48 300 -250 38 -75 78 -143 89 -153 30 -28 90 -19
116 16 18 25 21 42 20 125 -2 132 -25 191 -112 283 -71 75 -171 133 -247 143
-87 11 -153 13 -210 5z"/>
<path d="M8950 1827 c-88 -32 -300 -226 -300 -274 0 -8 13 -28 29 -44 35 -35
77 -38 114 -9 14 11 28 20 32 20 12 0 120 88 168 138 54 55 69 106 45 152 -16
30 -40 34 -88 17z"/>
<path d="M7453 1698 c-42 -46 -39 -60 37 -151 85 -104 207 -211 267 -233 55
-21 89 -12 120 34 l22 33 -36 47 c-62 83 -258 248 -327 277 -47 20 -59 19 -83
-7z"/>
<path d="M8791 1154 c-31 -40 -27 -80 11 -115 l33 -29 260 2 260 3 -3 65 c-5
110 23 100 -277 100 l-264 0 -20 -26z"/>
<path d="M7465 1006 c-63 -12 -140 -50 -149 -73 -3 -7 -3 -34 1 -58 l6 -45
194 0 c185 0 271 9 301 33 8 6 12 25 10 46 -7 85 -181 132 -363 97z"/>
</g>
</svg>
